<?xml version="1.0" standalone="no"?>
<!DOCTYPE svg PUBLIC "-//W3C//DTD SVG 20010904//EN"
 "http://www.w3.org/TR/2001/REC-SVG-20010904/DTD/svg10.dtd">
<svg version="1.0" xmlns="http://www.w3.org/2000/svg"
 width="636.000000pt" height="980.000000pt" viewBox="0 0 636.000000 980.000000"
 preserveAspectRatio="xMidYMid meet">
<metadata>
Created by potrace 1.15, written by Peter Selinger 2001-2017
</metadata>
<g transform="translate(0.000000,980.000000) scale(0.100000,-0.100000)"
fill="#000" stroke="none">
<path d="M2910 9789 c-1058 -92 -2001 -709 -2515 -1645 -209 -382 -341 -827
-375 -1264 -8 -103 -10 -702 -8 -2075 4 -2118 0 -1975 64 -2279 181 -865 708
-1607 1465 -2067 747 -453 1637 -576 2486 -343 910 249 1690 930 2063 1797
135 315 221 659 250 992 6 76 10 812 10 1995 0 1183 -4 1919 -10 1995 -50 586
-263 1148 -615 1620 -496 665 -1209 1104 -2015 1239 -260 44 -552 57 -800 35z
m577 -584 c475 -59 890 -229 1276 -522 56 -43 167 -143 247 -223 430 -428 692
-978 750 -1570 8 -82 10 -677 7 -2065 -4 -2153 1 -1982 -67 -2265 -230 -945
-980 -1691 -1925 -1913 -333 -79 -724 -88 -1061 -27 -1005 184 -1813 947
-2054 1940 -68 284 -63 111 -67 2270 -3 1410 -1 1986 7 2065 91 883 632 1660
1437 2063 237 119 542 210 826 247 144 18 476 18 624 0z"/>
<path d="M3010 7765 c-156 -31 -300 -107 -417 -219 -132 -125 -211 -259 -256
-433 -22 -87 -22 -96 -22 -773 0 -675 0 -686 22 -772 66 -260 229 -461 469
-581 102 -52 202 -77 329 -84 420 -21 782 250 888 665 22 86 22 97 22 772 0
677 0 686 -22 773 -102 400 -447 670 -850 666 -54 0 -127 -7 -163 -14z m297
-591 c59 -28 107 -78 137 -143 21 -45 21 -56 21 -691 0 -591 -1 -648 -17 -683
-30 -67 -76 -114 -140 -146 -150 -75 -325 -11 -396 146 -15 35 -17 95 -20 662
-3 691 -3 689 61 773 84 110 225 143 354 82z"/>
</g>
</svg>
